HIERARCHY
ROOT Hips
{
    OFFSET   0.000000   0.000000   0.000000
    CHANNELS 6 Xposition Yposition Zposition Zrotation Xrotation Yrotation
    JOINT Chest
    {
        OFFSET   0.000000   8.007230   0.000000
        CHANNELS 3 Zrotation Xrotation Yrotation
        JOINT Chest2
        {
            OFFSET   0.000000  22.077100   0.000000
            CHANNELS 3 Zrotation Xrotation Yrotation
            JOINT Neck
            {
                OFFSET   0.000000  23.254800   0.000000
                CHANNELS 3 Zrotation Xrotation Yrotation
                JOINT Head
                {
                    OFFSET   0.000010  14.370000   1.956600
                    CHANNELS 3 Zrotation Xrotation Yrotation
                    End Site
                    {
                        OFFSET   0.000000  19.566000   0.000000
                    }
                }
            }
            JOINT LeftCollar
            {
                OFFSET   3.911900  19.017000  -0.467062
                CHANNELS 3 Zrotation Xrotation Yrotation
                JOINT LeftShoulder
                {
                    OFFSET  10.383700   0.000000   0.000000
                    CHANNELS 3 Zrotation Xrotation Yrotation
                    JOINT LeftElbow
                    {
                        OFFSET  26.662100   0.001193   0.000835
                        CHANNELS 3 Zrotation Xrotation Yrotation
                        JOINT LeftWrist
                        {
                            OFFSET  28.869000  -0.000058  -0.000075
                            CHANNELS 3 Zrotation Xrotation Yrotation
                            JOINT LeftFinger0
                            {
                                OFFSET   2.044660  -2.323460   3.252850
                                CHANNELS 3 Zrotation Xrotation Yrotation
                                JOINT LeftFinger01
                                {
                                    OFFSET   3.088130   0.000000   0.000000
                                    CHANNELS 3 Zrotation Xrotation Yrotation
                                    JOINT LeftFinger02
                                    {
                                        OFFSET   2.639450   0.000000   0.000000
                                        CHANNELS 3 Zrotation Xrotation Yrotation
                                        End Site
                                        {
                                            OFFSET   2.582190   0.000000   0.000000
                                        }
                                    }
                                }
                            }
                            JOINT LeftFinger1
                            {
                                OFFSET   8.364480   0.000000   3.252850
                                CHANNELS 3 Zrotation Xrotation Yrotation
                                JOINT LeftFinger11
                                {
                                    OFFSET   4.646920   0.000000   0.000000
                                    CHANNELS 3 Zrotation Xrotation Yrotation
                                    JOINT LeftFinger12
                                    {
                                        OFFSET   2.323460   0.000000   0.000000
                                        CHANNELS 3 Zrotation Xrotation Yrotation
                                        End Site
                                        {
                                            OFFSET   2.273050   0.000000   0.000000
                                        }
                                    }
                                }
                            }
                            JOINT LeftFinger2
                            {
                                OFFSET   8.364490   0.000016   1.078090
                                CHANNELS 3 Zrotation Xrotation Yrotation
                                JOINT LeftFinger21
                                {
                                    OFFSET   5.111620   0.000000   0.000000
                                    CHANNELS 3 Zrotation Xrotation Yrotation
                                    JOINT LeftFinger22
                                    {
                                        OFFSET   2.788150   0.000012   0.000000
                                        CHANNELS 3 Zrotation Xrotation Yrotation
                                        End Site
                                        {
                                            OFFSET   2.727660   0.000000   0.000000
                                        }
                                    }
                                }
                            }
                            JOINT LeftFinger3
                            {
                                OFFSET   7.899780   0.000014  -1.078090
                                CHANNELS 3 Zrotation Xrotation Yrotation
                                JOINT LeftFinger31
                                {
                                    OFFSET   4.646930   0.000000   0.000000
                                    CHANNELS 3 Zrotation Xrotation Yrotation
                                    JOINT LeftFinger32
                                    {
                                        OFFSET   2.323470   0.000000   0.000000
                                        CHANNELS 3 Zrotation Xrotation Yrotation
                                        End Site
                                        {
                                            OFFSET   2.273050   0.000000   0.000000
                                        }
                                    }
                                }
                            }
                            JOINT LeftFinger4
                            {
                                OFFSET   7.435090   0.000000  -3.252850
                                CHANNELS 3 Zrotation Xrotation Yrotation
                                JOINT LeftFinger41
                                {
                                    OFFSET   3.717550   0.000000   0.000000
                                    CHANNELS 3 Zrotation Xrotation Yrotation
                                    JOINT LeftFinger42
                                    {
                                        OFFSET   1.858770   0.000000   0.000000
                                        CHANNELS 3 Zrotation Xrotation Yrotation
                                        End Site
                                        {
                                            OFFSET   1.818440   0.000000   0.000000
                                        }
                                    }
                                }
                            }
                        }
                    }
                }
            }
            JOINT RightCollar
            {
                OFFSET  -3.911900  19.017000  -0.467063
                CHANNELS 3 Zrotation Xrotation Yrotation
                JOINT RightShoulder
                {
                    OFFSET -10.383700   0.000023   0.000000
                    CHANNELS 3 Zrotation Xrotation Yrotation
                    JOINT RightElbow
                    {
                        OFFSET -26.662100   0.001246   0.001011
                        CHANNELS 3 Zrotation Xrotation Yrotation
                        JOINT RightWrist
                        {
                            OFFSET -28.869000  -0.000026  -0.000078
                            CHANNELS 3 Zrotation Xrotation Yrotation
                            JOINT RightFinger0
                            {
                                OFFSET  -2.044660  -2.323490   3.252850
                                CHANNELS 3 Zrotation Xrotation Yrotation
                                JOINT RightFinger01
                                {
                                    OFFSET  -3.088130   0.000000   0.000000
                                    CHANNELS 3 Zrotation Xrotation Yrotation
                                    JOINT RightFinger02
                                    {
                                        OFFSET  -2.639460   0.000000   0.000000
                                        CHANNELS 3 Zrotation Xrotation Yrotation
                                        End Site
                                        {
                                            OFFSET  -2.582190   0.000000   0.000000
                                        }
                                    }
                                }
                            }
                            JOINT RightFinger1
                            {
                                OFFSET  -8.364480   0.000000   3.252850
                                CHANNELS 3 Zrotation Xrotation Yrotation
                                JOINT RightFinger11
                                {
                                    OFFSET  -4.646920   0.000000   0.000000
                                    CHANNELS 3 Zrotation Xrotation Yrotation
                                    JOINT RightFinger12
                                    {
                                        OFFSET  -2.323470   0.000000   0.000000
                                        CHANNELS 3 Zrotation Xrotation Yrotation
                                        End Site
                                        {
                                            OFFSET  -2.273050   0.000000   0.000000
                                        }
                                    }
                                }
                            }
                            JOINT RightFinger2
                            {
                                OFFSET  -8.364480   0.000000   1.078090
                                CHANNELS 3 Zrotation Xrotation Yrotation
                                JOINT RightFinger21
                                {
                                    OFFSET  -5.111620   0.000000   0.000000
                                    CHANNELS 3 Zrotation Xrotation Yrotation
                                    JOINT RightFinger22
                                    {
                                        OFFSET  -2.788160   0.000000   0.000000
                                        CHANNELS 3 Zrotation Xrotation Yrotation
                                        End Site
                                        {
                                            OFFSET  -2.727660   0.000000   0.000000
                                        }
                                    }
                                }
                            }
                            JOINT RightFinger3
                            {
                                OFFSET  -7.899780   0.000000  -1.078090
                                CHANNELS 3 Zrotation Xrotation Yrotation
                                JOINT RightFinger31
                                {
                                    OFFSET  -4.646930   0.000000   0.000000
                                    CHANNELS 3 Zrotation Xrotation Yrotation
                                    JOINT RightFinger32
                                    {
                                        OFFSET  -2.323470   0.000000   0.000000
                                        CHANNELS 3 Zrotation Xrotation Yrotation
                                        End Site
                                        {
                                            OFFSET  -2.273050   0.000000   0.000000
                                        }
                                    }
                                }
                            }
                            JOINT RightFinger4
                            {
                                OFFSET  -7.435090   0.000000  -3.252850
                                CHANNELS 3 Zrotation Xrotation Yrotation
                                JOINT RightFinger41
                                {
                                    OFFSET  -3.717550   0.000000   0.000000
                                    CHANNELS 3 Zrotation Xrotation Yrotation
                                    JOINT RightFinger42
                                    {
                                        OFFSET  -1.858760   0.000000   0.000000
                                        CHANNELS 3 Zrotation Xrotation Yrotation
                                        End Site
                                        {
                                            OFFSET  -1.818440   0.000000   0.000000
                                        }
                                    }
                                }
                            }
                        }
                    }
                }
            }
        }
    }
    JOINT LeftHip
    {
        OFFSET   9.783010   0.000000   0.000000
        CHANNELS 3 Zrotation Xrotation Yrotation
        JOINT LeftKnee
        {
            OFFSET   0.000073 -41.789100   0.001749
            CHANNELS 3 Zrotation Xrotation Yrotation
            JOINT LeftAnkle
            {
                OFFSET   0.000111 -41.133200  -0.000179
                CHANNELS 3 Zrotation Xrotation Yrotation
                JOINT LeftToe
                {
                    OFFSET   0.000000  -6.358960  14.674500
                    CHANNELS 3 Zrotation Xrotation Yrotation
                    End Site
                    {
                        OFFSET   0.000000   0.000000   3.913200
                    }
                }
            }
        }
    }
    JOINT RightHip
    {
        OFFSET  -9.783010   0.000000   0.000000
        CHANNELS 3 Zrotation Xrotation Yrotation
        JOINT RightKnee
        {
            OFFSET   0.000424 -41.789200   0.005205
            CHANNELS 3 Zrotation Xrotation Yrotation
            JOINT RightAnkle
            {
                OFFSET   0.000000 -41.133200  -0.000155
                CHANNELS 3 Zrotation Xrotation Yrotation
                JOINT RightToe
                {
                    OFFSET   0.000000  -6.358960  14.674500
                    CHANNELS 3 Zrotation Xrotation Yrotation
                    End Site
                    {
                        OFFSET   0.000000   0.000000   3.913200
                    }
                }
            }
        }
    }
}
MOTION
Frames: 6
Frame Time:   0.016667
 -0.787021  89.652000  -1.652090  -2.378990  -7.648680   0.442103   0.736570   4.033330  -0.849524   1.538900   8.054900  -1.757640   0.938956   1.095780  -0.016966   1.544480   2.220050   4.089230  -3.490490  -0.740420   1.174130 -75.004700  12.644600   3.453170  -0.953583  -2.746080 -17.600900  11.388300  -4.284360  -3.471600  40.673400  31.071900 -70.189800 -23.639700   0.000338   0.001789  -6.819840  -0.003560  -0.014454 -24.401800   5.242080 -11.386700 -20.393000   0.009696   0.000189 -14.264000  -0.006406  -0.000339 -26.634300  -0.509826   1.016380 -26.638900  -0.000535   0.001741 -17.741500  -0.000479   0.002689 -27.745500  -0.529619   1.006230 -30.568500  -0.001985   0.001436 -20.358600  -0.000957  -0.008305 -28.503800  -0.542701   0.999212 -42.762900   0.002065   0.002601 -28.480100  -0.000750   0.002911   6.254300  -0.675571   5.418690  70.847700   3.597090  -8.522790  -0.850637  -3.869580   9.869800  -8.339950  -7.146320   7.928340 -48.439900  34.404600  70.805300   5.761840   0.003404  -0.011643  -2.119080   0.011261   0.005803  23.182300   8.424980  18.886800  20.115800  -0.013583   0.000107  14.081100   0.011786   0.002319  25.166400   5.209630  10.940400  25.666000   0.001124   0.007117  17.093600   0.003722   0.006022  23.060600   2.581190   6.039580  23.197000   0.001006   0.006323  15.449200   0.000920   0.004101  27.321000   1.648860   3.195420  41.050400   0.005911  -0.000355  27.339500   0.004890   0.006533   2.987700   7.325410  -1.796080   1.611240   0.063811  10.560400  -2.321940  -0.562430  -0.197074   0.000000   0.000000  -0.000000   3.819230   6.060670   0.814189  -2.333550   3.283160 -18.353400   1.934280  -3.563400   3.788370  -0.000000   0.000000   0.000000
 -0.803009  89.652000  -1.669480  -2.373300  -7.660900   0.484073   0.735274   4.044460  -0.845118   1.536190   8.077250  -1.748890   0.928640   1.089770  -0.016971   1.527500   2.208080   4.099780  -3.491110  -0.747001   1.174130 -74.987600  12.654600   3.453690  -0.957455  -2.760690 -17.592200  11.388600  -4.284420  -3.467090  40.658300  31.047600 -70.142800 -23.652300   0.000333   0.001793  -6.826160  -0.003560  -0.014469 -24.396600   5.231420 -11.366500 -20.387100   0.009695   0.000208 -14.263800  -0.006408  -0.000329 -26.616600  -0.526169   1.049850 -26.621500  -0.000538   0.001742 -17.729900  -0.000479   0.002688 -27.744900  -0.546921   1.039220 -30.555700  -0.001983   0.001437 -20.349900  -0.000956  -0.008309 -28.493500  -0.560271   1.032050 -42.747800   0.002066   0.002601 -28.470100  -0.000749   0.002912   6.258020  -0.689871   5.430350  70.850800   3.615830  -8.526800  -0.842755  -3.876800   9.869880  -8.335550  -7.147970   7.928370 -48.441700  34.408600  70.812300   5.746160   0.003397  -0.011640  -2.126930   0.011269   0.005804  23.187700   8.427900  18.888700  20.120700  -0.013583   0.000107  14.084500   0.011785   0.002312  25.178200   5.209590  10.939800  25.677200   0.001124   0.007111  17.101100   0.003722   0.006019  23.073500   2.582560   6.039970  23.210000   0.001009   0.006321  15.457800   0.000910   0.004099  27.330100   1.648860   3.191840  41.063900   0.005911  -0.000373  27.348500   0.004887   0.006536   3.000280   7.332370  -1.795550   1.622690   0.033006  10.548600  -2.334830  -0.527246  -0.229575  -0.000000   0.000000   0.000000   3.830520   6.058860   0.809877  -2.325710   3.288450 -18.365600   1.924770  -3.566500   3.764420  -0.000000   0.000000   0.000000
 -0.830052  89.651900  -1.698160  -2.364060  -7.681670   0.551910   0.732984   4.063440  -0.838164   1.531430   8.115320  -1.735080   0.911993   1.080880  -0.016975   1.500110   2.190400   4.119610  -3.494140  -0.760356   1.174130 -74.961300  12.664500   3.454350  -0.961086  -2.775390 -17.578700  11.389000  -4.284720  -3.460700  40.635300  31.010600 -70.071100 -23.673100   0.000328   0.001799  -6.836560  -0.003563  -0.014489 -24.392200   5.216820 -11.338400 -20.381200   0.009693   0.000252 -14.263600  -0.006413  -0.000309 -26.589800  -0.555264   1.109230 -26.595200  -0.000543   0.001744 -17.712400  -0.000480   0.002687 -27.743800  -0.577654   1.097760 -30.538400  -0.001980   0.001439 -20.338500  -0.000955  -0.008315 -28.478400  -0.591525   1.090320 -42.726000   0.002067   0.002601 -28.455500  -0.000748   0.002914   6.270290  -0.725100   5.458500  70.855300   3.642720  -8.538900  -0.833198  -3.893630   9.870060  -8.315530  -7.149610   7.928390 -48.452900  34.422500  70.834600   5.724700   0.003390  -0.011637  -2.137670   0.011276   0.005807  23.196200   8.433560  18.893600  20.128800  -0.013584   0.000104  14.090200   0.011784   0.002297  25.200700   5.209610  10.936000  25.699000   0.001129   0.007097  17.115600   0.003721   0.006010  23.099400   2.585240   6.040370  23.235900   0.001016   0.006312  15.475100   0.000885   0.004092  27.349400   1.648870   3.184190  41.092700   0.005910  -0.000417  27.367800   0.004877   0.006544   3.020670   7.339340  -1.795020   1.639710   0.002199  10.527900  -2.357230  -0.478603  -0.279227  -0.000000   0.000000  -0.000000   3.851370   6.057050   0.802159  -2.315720   3.297170 -18.383300   1.908810  -3.573380   3.723850  -0.000000   0.000000   0.000000
 -0.852585  89.651800  -1.720450  -2.360250  -7.698760   0.601765   0.730589   4.079140  -0.832378   1.526460   8.146840  -1.723570   0.900000   1.076010  -0.016940   1.480410   2.180960   4.137790  -3.500520  -0.776238   1.177190 -74.944800  12.654000   3.454400  -0.959441  -2.767250 -17.569800  11.388700  -4.293300  -3.458020  40.618800  30.984800 -70.019100 -23.693200   0.000328   0.001801  -6.846600  -0.003571  -0.014495 -24.393400   5.211740 -11.327500 -20.381200   0.009691   0.000315 -14.264100  -0.006417  -0.000283 -26.570800  -0.587555   1.174960 -26.576800  -0.000548   0.001743 -17.700200  -0.000484   0.002689 -27.742600  -0.611712   1.162570 -30.532900  -0.001982   0.001435 -20.335200  -0.000956  -0.008321 -28.469700  -0.626268   1.154790 -42.714000   0.002065   0.002604 -28.447500  -0.000749   0.002915   6.292560  -0.778946   5.497410  70.842300   3.656540  -8.567130  -0.829411  -3.920260   9.865100  -8.280750  -7.128470   7.924840 -48.474100  34.444500  70.862800   5.720670   0.003396  -0.011646  -2.139680   0.011272   0.005827  23.203300   8.438930  18.898800  20.135800  -0.013587   0.000094  14.095500   0.011787   0.002277  25.223900   5.209990  10.915000  25.721700   0.001144   0.007081  17.130700   0.003714   0.005997  23.128800   2.587570   6.036540  23.265200   0.001026   0.006292  15.494700   0.000846   0.004080  27.376100   1.645970   3.173650  41.132300   0.005911  -0.000483  27.394200   0.004860   0.006559   3.034730   7.327090  -1.796630   1.650770   0.019423  10.509600  -2.377620  -0.463631  -0.309269  -0.000000   0.000000   0.000000   3.873130   6.057260   0.795373  -2.312490   3.303060 -18.391300   1.896060  -3.583530   3.688610  -0.000000   0.000000   0.000000
 -0.875472  89.651700  -1.742380  -2.359460  -7.717130   0.649015   0.728631   4.096070  -0.829149   1.522640   8.180800  -1.717200   0.888295   1.072690  -0.016904   1.461170   2.174340   4.163310  -3.509540  -0.794600   1.187510 -74.931100  12.633200   3.454180  -0.958352  -2.751560 -17.561900  11.388400  -4.301650  -3.456530  40.610200  30.971600 -69.991900 -23.705100   0.000329   0.001804  -6.852550  -0.003581  -0.014497 -24.393800   5.210590 -11.324300 -20.381500   0.009687   0.000400 -14.267100  -0.006424  -0.000251 -26.560800  -0.611843   1.223670 -26.567400  -0.000554   0.001743 -17.693900  -0.000492   0.002691 -27.741700  -0.637065   1.210730 -30.531900  -0.001984   0.001430 -20.334800  -0.000957  -0.008329 -28.465600  -0.652180   1.202660 -42.708700   0.002064   0.002610 -28.444000  -0.000749   0.002915   6.322870  -0.842989   5.550600  70.797400   3.662220  -8.587510  -0.826529  -3.946670   9.848000  -8.229540  -7.048270   7.920270 -48.512700  34.490900  70.922400   5.715560   0.003402  -0.011665  -2.142220   0.011267   0.005844  23.207500   8.446880  18.911500  20.141100  -0.013593   0.000083  14.098700   0.011792   0.002249  25.253600   5.210380  10.897300  25.751000   0.001165   0.007060  17.150200   0.003703   0.005980  23.164300   2.591620   6.032720  23.300800   0.001040   0.006267  15.518400   0.000796   0.004065  27.403500   1.641430   3.162810  41.173100   0.005913  -0.000565  27.421300   0.004839   0.006577   3.050310   7.314830  -1.799630   1.660660   0.038380  10.489800  -2.398410  -0.454759  -0.334281  -0.000000   0.000000   0.000000   3.895750   6.057840   0.786941  -2.309430   3.310700 -18.397600   1.882620  -3.593680   3.655490  -0.000000   0.000000   0.000000
 -0.898460  89.651600  -1.764450  -2.359040  -7.737850   0.694906   0.727924   4.115450  -0.829306   1.521480   8.219560  -1.717680   0.875987   1.070720  -0.016907   1.440810   2.169400   4.203030  -3.521280  -0.814129   1.206840 -74.916600  12.603300   3.449430  -0.959392  -2.729770 -17.555400  11.384400  -4.301110  -3.455520  40.606500  30.981500 -70.020900 -23.704100   0.000336   0.001813  -6.852380  -0.003590  -0.014498 -24.405200   5.216920 -11.333100 -20.391900   0.009681   0.000507 -14.275500  -0.006439  -0.000214 -26.568300  -0.617386   1.234040 -26.574900  -0.000561   0.001743 -17.698900  -0.000505   0.002687 -27.741500  -0.642579   1.221120 -30.537900  -0.001982   0.001427 -20.338200  -0.000958  -0.008341 -28.467400  -0.657844   1.212950 -42.711600   0.002065   0.002615 -28.446000  -0.000749   0.002916   6.362540  -0.910053   5.623380  70.720900   3.661970  -8.587780  -0.820012  -3.962180   9.817070  -8.152780  -6.901830   7.919610 -48.582800  34.582100  71.048100   5.692790   0.003392  -0.011684  -2.153600   0.011269   0.005840  23.205600   8.457770  18.935600  20.142900  -0.013601   0.000079  14.097500   0.011793   0.002207  25.293800   5.217880  10.898400  25.792100   0.001179   0.007032  17.177500   0.003690   0.005957  23.205600   2.598910   6.036830  23.342700   0.001059   0.006243  15.546300   0.000737   0.004045  27.422600   1.638240   3.155170  41.201600   0.005913  -0.000660  27.440200   0.004817   0.006600   3.071460   7.316180  -1.802630   1.666240   0.040208  10.467600  -2.417490  -0.437732  -0.356432   0.000000   0.000000   0.000000   3.915220   6.058320   0.775163  -2.304650   3.323920 -18.406600   1.867210  -3.599170   3.630200  -0.000000   0.000000   0.000000
